<?xml version="1.0" encoding="utf-8"?>
<!-- Generator: Adobe Illustrator 16.0.2, SVG Export Plug-In . SVG Version: 6.00 Build 0)  -->
<!DOCTYPE svg PUBLIC "-//W3C//DTD SVG 1.1//EN" "http://www.w3.org/Graphics/SVG/1.1/DTD/svg11.dtd">
<svg version="1.1" id="Ebene_1" xmlns="http://www.w3.org/2000/svg" xmlns:xlink="http://www.w3.org/1999/xlink" x="0px" y="0px"
	 width="576px" height="576px" viewBox="0 0 576 576" style="enable-background:new 0 0 576 576;" xml:space="preserve">
<circle style="fill:#FFFFFF;stroke:#000000;stroke-linecap:round;stroke-linejoin:round;" cx="287.47" cy="287.469" r="286.969"/>
<circle style="fill:#FF0000;stroke:#FF0000;stroke-width:0.1764;stroke-linecap:round;stroke-linejoin:round;" cx="287.47" cy="287.469" r="273.982"/>
<path style="fill:#0000FF;stroke:#FF0000;stroke-width:0.1764;stroke-linecap:round;stroke-linejoin:round;" d="M417.846,429.012
	c-72.261,66.563-183.058,68.002-257.025,3.347C86.853,367.7,73.465,257.706,129.764,177.193l282.715,247.128L417.846,429.012z"/>
<path style="fill:none;stroke:#0000FF;stroke-width:0.1764;stroke-linecap:round;stroke-linejoin:round;" d="M416.834,429.025
	c-72.057,65.85-182.077,67.063-255.569,2.821c-73.492-64.239-87-173.438-31.378-253.649L412.033,424.83L416.834,429.025z"/>
<path style="fill:none;stroke:#0000FF;stroke-width:0.1764;stroke-linecap:round;stroke-linejoin:round;" d="M445.183,396.555
	c55.527-80.277,41.89-189.458-31.679-253.614c-73.568-64.154-183.59-62.808-255.566,3.126l282.44,246.298L445.183,396.555z"/>
<path style="fill:#0000FF;stroke:#FF0000;stroke-width:0.1764;stroke-linecap:round;stroke-linejoin:round;" d="M445.307,397.559
	c56.203-80.578,42.686-190.557-31.359-255.125s-184.839-62.997-257.021,3.649l283.008,246.793L445.307,397.559z"/>
<circle style="fill:#0000FF;stroke:#000000;stroke-width:0.1764;stroke-linecap:round;stroke-linejoin:round;" cx="225.753" cy="392.418" r="12.136"/>
<g>
	<rect x="127.5" y="274.5" style="fill:none;" width="274" height="167.99"/>
</g>
<g>
	<path style="fill:#FFFFFF;" d="M180.82,371.754v49.493h-10.058l0.036-34.938h-0.144c-0.072,0.293-0.938,0.933-2.596,1.921
		l-3.136,1.55l-2.812,1.011c-1.13,0.225-1.743,0.394-1.838,0.505v-10.443l2.235-0.978c3.725-2.224,6.405-4.931,8.039-8.12H180.82z"
		/>
	<path style="fill:#FFFFFF;" d="M218.384,371.822c7.233,1.01,11.884,4.817,13.951,11.421l-10.058,2.595
		c-0.962-2.471-2.728-3.863-5.299-4.178c-4.422-0.518-7.307,0.449-8.652,2.896c-0.889,1.348-1.586,4.717-2.091,10.107
		c5.047-3.279,10.514-3.885,16.403-1.818c4.687,1.908,7.69,5.031,9.012,9.365c0.264,1.303,0.396,2.561,0.396,3.773
		c0,3.617-1.178,6.807-3.533,9.568c-2.788,3.258-6.682,5.088-11.68,5.492c-0.914,0.067-1.802,0.102-2.667,0.102
		c-11.32,0-17.412-6.289-18.277-18.867c-0.096-1.662-0.144-3.257-0.144-4.785c0-4.918,0.456-9.152,1.37-12.701
		c1.226-4.672,3.689-8.164,7.39-10.479c2.884-1.818,6.333-2.729,10.347-2.729C216.005,371.586,217.182,371.665,218.384,371.822z
		 M213.229,412.15c5.071,0.202,7.955-1.438,8.652-4.919c0.192-3.773-1.898-5.896-6.272-6.368c-5.143-0.18-8.016,1.572-8.616,5.256
		C207.04,409.758,209.119,411.769,213.229,412.15z"/>
	<path style="fill:#FFFFFF;" d="M237.67,411.072h10.815v10.175H237.67V411.072z"/>
	<path style="fill:#FFFFFF;" d="M278.587,371.653c1.97,0.382,3.845,1.124,5.624,2.224l2.451,1.954
		c1.082,1.213,1.778,2.067,2.091,2.561l1.118,2.089c0.624,1.707,0.961,3.448,1.009,5.223l-0.181,2.561l-0.612,1.887
		c-0.697,1.617-1.779,3.256-3.245,4.918l0.18,0.438l1.73,1.786l1.118,1.583l1.009,2.358c0.553,1.64,0.829,3.246,0.829,4.818
		c0,3.189-1.142,6.221-3.425,9.096c-3.46,3.887-7.943,5.919-13.446,6.099c-1.995,0-3.641-0.112-4.939-0.337
		c-1.683-0.426-2.872-0.786-3.569-1.078l-2.163-1.011l-1.838-1.247l-1.658-1.381l-1.694-2.055c-0.986-1.505-1.683-2.932-2.091-4.279
		l-0.036-0.303l9.481-2.426c0.456,1.684,1.598,2.965,3.425,3.84c1.129,0.428,2.799,0.663,5.011,0.708l1.694-0.169l1.37-0.404
		l1.045-0.572c0.721-0.449,1.37-1.111,1.947-1.988c0.288-0.561,0.504-1.324,0.649-2.291c0.048-0.785,0-1.234-0.145-1.348
		c0.048-0.358-0.121-0.909-0.504-1.65l-0.901-1.18c-0.649-0.605-1.214-1.021-1.694-1.246c-0.601-0.314-1.406-0.572-2.416-0.775
		l-3.929-0.101v-9.13c0.528,0.045,1.574-0.022,3.136-0.203l0.072,0.068c2.859-0.314,4.662-1.774,5.407-4.381l-0.072-1.516
		l0.072-0.236l-0.144-0.471l-0.685-1.247c-0.673-0.786-1.286-1.302-1.838-1.55c-0.097-0.067-0.914-0.27-2.452-0.606l-2.271,0.067
		v-0.067l-2.235,0.337l-1.586,0.641l-0.649,0.471l-0.721,0.978l-0.541,1.247l-9.373-2.629l0.613-1.516l0.216-0.202
		c-0.048-0.112,0.228-0.674,0.829-1.685l1.01-1.516l1.442-1.551c0.528-0.27,0.793-0.471,0.793-0.605l0.757-0.506
		c1.875-1.303,4.061-2.134,6.561-2.493c1.249-0.18,2.751-0.27,4.506-0.27C276.004,371.384,277.289,371.474,278.587,371.653z"/>
	<path style="fill:#FFFFFF;" d="M326.461,371.754v49.493h-10.059l0.037-34.938h-0.145c-0.072,0.293-0.938,0.933-2.596,1.921
		l-3.137,1.55l-2.812,1.011c-1.13,0.225-1.743,0.394-1.839,0.505v-10.443l2.235-0.978c3.726-2.224,6.405-4.931,8.039-8.12H326.461z"
		/>
</g>
</svg>
